<?xml version="1.0" encoding="UTF-8"?>
<svg version="1.1" xmlns="http://www.w3.org/2000/svg" width="500" height="500">
<path d="M0 0 C165 0 330 0 500 0 C500 165 500 330 500 500 C335 500 170 500 0 500 C0 335 0 170 0 0 Z " fill="#FEFEFE" transform="translate(0,0)"/>
<path d="M0 0 C4.81919634 -0.29892431 9.63290877 -0.51532515 14.45922852 -0.65917969 C16.09625255 -0.71917111 17.73264296 -0.8008099 19.36743164 -0.90527344 C32.95296537 -1.7510009 32.95296537 -1.7510009 37.97460938 2.54443359 C40.24421458 5.59790533 42.10296319 8.70709896 44 12 C59.54927851 30.28633389 84.44008563 42.32785285 108 46 C128.70643188 47.47903085 144.90173909 42.09325221 161 29 C161.99 28.278125 162.98 27.55625 164 26.8125 C172.3133524 19.74615046 177.48861103 9.71683778 182 0 C188.6 0 195.2 0 202 0 C198.35150011 9.12124973 191.63416305 15.87267792 185 23 C184.44699219 23.60714844 183.89398438 24.21429688 183.32421875 24.83984375 C159.5547494 49.906902 121.83613833 67.30740797 87.5625 68.3125 C63.35071733 68.34364602 42.87574451 56.39300222 25 41 C22.49461402 38.47287531 20.25081985 35.75507685 18 33 C17.27425781 32.11183594 16.54851562 31.22367187 15.80078125 30.30859375 C8.49290353 20.99073948 3.17242989 11.45387338 0 0 Z " fill="#020202" transform="translate(118,313)"/>
<path d="M0 0 C-4.32369829 3.87641915 -11.95808443 10 -18 10 C-17.99476318 11.10359863 -17.98952637 12.20719727 -17.98413086 13.34423828 C-17.89845656 33.26242777 -17.88558654 53.16613971 -18.50610352 73.07623291 C-18.83136556 83.51380111 -19.0583172 93.94841106 -19.19225883 104.39038467 C-19.21879203 106.44857245 -19.24645363 108.50674225 -19.27442932 110.56491089 C-19.38650032 118.80623118 -19.38650032 118.80623118 -19.47872925 127.04779053 C-19.51822054 130.90700243 -19.56881507 134.76594304 -19.62109375 138.625 C-19.63366211 140.33709152 -19.63366211 140.33709152 -19.64648438 142.08377075 C-19.97874009 163.97874009 -19.97874009 163.97874009 -23 167 C-29.27 167 -35.54 167 -42 167 C-41.67 116.51 -41.34 66.02 -41 14 C-45.29 14.66 -49.58 15.32 -54 16 C-56.66576759 16.06924072 -59.33538146 16.10449484 -62 16 C-59.34136446 13.18996152 -56.74445837 11.00487756 -53.4375 9 C-52.67308594 8.525625 -51.90867188 8.05125 -51.12109375 7.5625 C-41.39577212 2.69375325 -32.58179106 1.26274751 -21.75 0.75 C-20.41397655 0.67335889 -19.07803698 0.59524085 -17.7421875 0.515625 C-11.8189829 0.18192333 -5.93361158 -0.03584694 0 0 Z " fill="#020202" transform="translate(298,109)"/>
<path d="M0 0 C18.92173854 7.22008489 32.5577066 25.65001532 40.75 43.5 C50.34822355 66.20269768 51.46157357 91.76898499 48 116 C38.76 116 29.52 116 20 116 C20.04125 112.308125 20.0825 108.61625 20.125 104.8125 C20.16306537 84.46791901 16.33246114 60.74101425 2.71774292 44.46731567 C-1.30437356 39.62104578 -1.62863162 35.93794999 -1.26953125 29.78515625 C-1.24026047 28.92941513 -1.21098969 28.07367401 -1.18083191 27.19200134 C-1.08250003 24.48055444 -0.94809902 21.77231283 -0.8125 19.0625 C-0.73914174 17.21558835 -0.66815365 15.36858095 -0.59960938 13.52148438 C-0.4271414 9.01275246 -0.22232969 4.50653716 0 0 Z " fill="#020202" transform="translate(289,160)"/>
<path d="M0 0 C4.6715625 0.0309375 4.6715625 0.0309375 9.4375 0.0625 C9.4375 7.3225 9.4375 14.5825 9.4375 22.0625 C7.4575 21.7325 5.4775 21.4025 3.4375 21.0625 C2.40109375 20.8975 1.3646875 20.7325 0.296875 20.5625 C-0.72921875 20.3975 -1.7553125 20.2325 -2.8125 20.0625 C-3.84890625 19.8975 -4.8853125 19.7325 -5.953125 19.5625 C-8.5625 19.0625 -8.5625 19.0625 -10.5625 18.0625 C-19.74366104 17.65841615 -28.68685796 17.48675915 -37.5625 20.0625 C-38.45582031 20.23394531 -39.34914063 20.40539062 -40.26953125 20.58203125 C-56.05805006 23.78939746 -69.59124869 33.84662098 -79.25 46.5625 C-96.16996269 72.5036713 -97.9879806 98.85337765 -97.5625 129.0625 C-106.4725 129.0625 -115.3825 129.0625 -124.5625 129.0625 C-125.25302917 95.2265709 -111.62879304 64.58321165 -88.5625 40.0625 C-65.69704668 16.29676925 -33.20791776 -0.31420034 0 0 Z " fill="#030303" transform="translate(237.5625,146.9375)"/>
<path d="M0 0 C3.13051597 2.72916777 3.90170097 4.32419415 4.5 8.4375 C3.82578672 13.24126965 2.08448038 16.41867006 -1.8125 19.375 C-5.04668866 20.2990539 -7.65639578 20.35824331 -11 20 C-14.48985045 17.24485491 -15.83362688 15.21214701 -16.4375 10.8125 C-15.8661751 5.83381162 -13.74961876 3.22959864 -10 0 C-6.16652698 -1.27782434 -3.91272241 -0.96101954 0 0 Z " fill="#F8F8F8" transform="translate(155,284)"/>
<path d="M0 0 C4.49058235 0.04497007 7.51373039 0.68583052 11.3125 3.25 C13.66870437 6.78430656 13.80241613 8.08571287 13.3125 12.25 C10.84125312 17.09744581 8.46460028 19.46658067 3.3125 21.25 C0.63617993 21.39222296 -2.00477432 21.29968011 -4.6875 21.25 C-4.88342461 17.93794116 -5.06782746 14.62534146 -5.25 11.3125 C-5.30607422 10.36697266 -5.36214844 9.42144531 -5.41992188 8.44726562 C-5.46826172 7.54814453 -5.51660156 6.64902344 -5.56640625 5.72265625 C-5.6135376 4.89000244 -5.66066895 4.05734863 -5.70922852 3.19946289 C-5.66658809 -0.62619749 -3.24658402 0.05823469 0 0 Z " fill="#FBFBFB" transform="translate(307.6875,282.75)"/>
<path d="M0 0 C4.29 0 8.58 0 13 0 C5.14080629 13.09865619 -8.61464634 25.35241671 -23 31 C-23.66 30.67 -24.32 30.34 -25 30 C-24.35933594 29.5153125 -23.71867188 29.030625 -23.05859375 28.53125 C-12.45851014 20.31658014 -6.29748665 11.64626103 0 0 Z " fill="#0C0C0C" transform="translate(245,313)"/>
<path d="M0 0 C4.49058235 0.04497007 7.51373039 0.68583052 11.3125 3.25 C13.66870437 6.78430656 13.80241613 8.08571287 13.3125 12.25 C10.84125312 17.09744581 8.46460028 19.46658067 3.3125 21.25 C0.63617993 21.39222296 -2.00477432 21.29968011 -4.6875 21.25 C-4.88342461 17.93794116 -5.06782746 14.62534146 -5.25 11.3125 C-5.30607422 10.36697266 -5.36214844 9.42144531 -5.41992188 8.44726562 C-5.46826172 7.54814453 -5.51660156 6.64902344 -5.56640625 5.72265625 C-5.6135376 4.89000244 -5.66066895 4.05734863 -5.70922852 3.19946289 C-5.66658809 -0.62619749 -3.24658402 0.05823469 0 0 Z M-1.6875 2.25 C-2.0175 7.86 -2.3475 13.47 -2.6875 19.25 C4.82054268 20.00537176 4.82054268 20.00537176 8.3125 17.1875 C10.84225133 13.47192774 11.1003128 11.6617517 10.3125 7.25 C8.39583333 4.16666667 8.39583333 4.16666667 5.3125 2.25 C3.0025 2.25 0.6925 2.25 -1.6875 2.25 Z " fill="#3F3F3F" transform="translate(307.6875,282.75)"/>
<path d="M0 0 C0.4228125 0.57621094 0.845625 1.15242188 1.28125 1.74609375 C2.94697321 3.9304626 4.68720425 5.99925221 6.5 8.0625 C7.0878125 8.73410156 7.675625 9.40570313 8.28125 10.09765625 C9.8017895 11.78061702 11.39619245 13.39619245 13 15 C13.33 10.71 13.66 6.42 14 2 C13.34 1.67 12.68 1.34 12 1 C13.65 0.67 15.3 0.34 17 0 C16.72274659 3.12645567 16.42575639 6.25072466 16.125 9.375 C16.00705078 10.70917969 16.00705078 10.70917969 15.88671875 12.0703125 C15.80292969 12.92109375 15.71914062 13.771875 15.6328125 14.6484375 C15.52283936 15.82672119 15.52283936 15.82672119 15.41064453 17.02880859 C15 19 15 19 13 21 C12.37351563 20.30132812 11.74703125 19.60265625 11.1015625 18.8828125 C10.28429687 17.97273438 9.46703125 17.06265625 8.625 16.125 C7.81289062 15.22007812 7.00078125 14.31515625 6.1640625 13.3828125 C4.80923795 11.89103817 3.42494565 10.42494565 2 9 C1.67 12.96 1.34 16.92 1 21 C0.01 20.67 -0.98 20.34 -2 20 C-1.86177801 16.85378318 -1.71314916 13.70814434 -1.5625 10.5625 C-1.52318359 9.66466797 -1.48386719 8.76683594 -1.44335938 7.84179688 C-1.40146484 6.98779297 -1.35957031 6.13378906 -1.31640625 5.25390625 C-1.27974854 4.46314697 -1.24309082 3.6723877 -1.20532227 2.85766602 C-1 1 -1 1 0 0 Z " fill="#232323" transform="translate(166,283)"/>
<path d="M0 0 C0.99 0.33 1.98 0.66 3 1 C2.91308261 3.77236494 2.80622639 6.54147078 2.6875 9.3125 C2.66494141 10.09818359 2.64238281 10.88386719 2.61914062 11.69335938 C2.58369141 12.45068359 2.54824219 13.20800781 2.51171875 13.98828125 C2.48553467 14.68477783 2.45935059 15.38127441 2.43237305 16.09887695 C1.88776232 18.49350359 0.84170838 19.43272547 -1 21 C-2.0847278 19.77206376 -3.16770815 18.5425838 -4.25 17.3125 C-4.85328125 16.62800781 -5.4565625 15.94351562 -6.078125 15.23828125 C-8.10891383 12.87315524 -10.05260155 10.43424806 -12 8 C-12.33 12.29 -12.66 16.58 -13 21 C-13.66 21 -14.32 21 -15 21 C-14.67 14.4 -14.34 7.8 -14 1 C-13.34 1 -12.68 1 -12 1 C-10.921875 2.5390625 -10.921875 2.5390625 -9.75 4.625 C-7.29300538 8.74688351 -4.505877 11.73871907 -1 15 C-1.01160156 14.00097656 -1.02320313 13.00195312 -1.03515625 11.97265625 C-1.04417969 10.68230469 -1.05320313 9.39195312 -1.0625 8.0625 C-1.07410156 6.77472656 -1.08570313 5.48695313 -1.09765625 4.16015625 C-1 1 -1 1 0 0 Z " fill="#171717" transform="translate(231,283)"/>
<path d="M0 0 C0 0.99 0 1.98 0 3 C-0.90492188 2.94779297 -0.90492188 2.94779297 -1.828125 2.89453125 C-5.36644251 2.77468501 -8.23818445 2.70270613 -11.5625 4 C-13.82441623 7.14701388 -13.58358789 10.32856734 -13 14 C-12.20426487 16.61760705 -12.20426487 16.61760705 -10 18 C-7.24499627 18.32603594 -4.7929024 18.18314114 -2 18 C-1.67 16.02 -1.34 14.04 -1 12 C-1.66 11.67 -2.32 11.34 -3 11 C-1.35 10.67 0.3 10.34 2 10 C2.60247445 16.26573427 2.60247445 16.26573427 0 19.4375 C-3.82324762 21.4287748 -6.77182043 21.87126124 -11 21 C-13.8100346 19.20636089 -15.50940468 17.98119065 -17 15 C-17.52132628 10.4818389 -17.35267424 8.53404957 -14.8125 4.6875 C-10.01178044 0.10014576 -6.55105529 -0.25690413 0 0 Z " fill="#2D2D2D" transform="translate(342,283)"/>
<path d="M0 0 C3.63 0 7.26 0 11 0 C11 0.33 11 0.66 11 1 C8.69 1 6.38 1 4 1 C4 3.31 4 5.62 4 8 C5.98 8 7.96 8 10 8 C9.67 8.66 9.34 9.32 9 10 C7.35 10 5.7 10 4 10 C4.020625 11.11375 4.04125 12.2275 4.0625 13.375 C4 17 4 17 3 19 C4.98 19 6.96 19 9 19 C9 19.33 9 19.66 9 20 C6.36 20 3.72 20 1 20 C0.29867087 13.29980211 -0.11044961 6.73742646 0 0 Z " fill="#232323" transform="translate(240,284)"/>
<path d="M0 0 C1.2065625 0.0309375 1.2065625 0.0309375 2.4375 0.0625 C1.4475 0.5575 1.4475 0.5575 0.4375 1.0625 C0.4375 7.0025 0.4375 12.9425 0.4375 19.0625 C3.0775 19.0625 5.7175 19.0625 8.4375 19.0625 C8.1075 19.7225 7.7775 20.3825 7.4375 21.0625 C3.8075 21.0625 0.1775 21.0625 -3.5625 21.0625 C-3.58933436 17.74994674 -3.6092578 14.43760817 -3.625 11.125 C-3.63337891 10.17947266 -3.64175781 9.23394531 -3.65039062 8.25976562 C-3.65361328 7.36064453 -3.65683594 6.46152344 -3.66015625 5.53515625 C-3.66539307 4.70250244 -3.67062988 3.86984863 -3.67602539 3.01196289 C-3.50016074 -0.00799247 -3.04049625 0.07415845 0 0 Z " fill="#3B3B3B" transform="translate(191.5625,282.9375)"/>
<path d="M0 0 C1.32 0 2.64 0 4 0 C4.33 5.61 4.66 11.22 5 17 C7.64 17.33 10.28 17.66 13 18 C11 20 11 20 7.5625 20.3125 C4 20 4 20 2.30932617 18.73120117 C0.74754794 16.66620594 0.58472852 15.55377874 0.48828125 12.98828125 C0.45283203 12.23095703 0.41738281 11.47363281 0.38085938 10.69335938 C0.35830078 9.90767578 0.33574219 9.12199219 0.3125 8.3125 C0.27833984 7.51521484 0.24417969 6.71792969 0.20898438 5.89648438 C0.12661896 3.93148096 0.06162933 1.96576304 0 0 Z " fill="#2A2A2A" transform="translate(277,284)"/>
<path d="M0 0 C3.3 0 6.6 0 10 0 C10 0.33 10 0.66 10 1 C7.69 1 5.38 1 3 1 C3 3.31 3 5.62 3 8 C5.31 8 7.62 8 10 8 C9.67 8.66 9.34 9.32 9 10 C7.02 10 5.04 10 3 10 C3 12.64 3 15.28 3 18 C4.98 18.33 6.96 18.66 9 19 C9 19.33 9 19.66 9 20 C6.03 20 3.06 20 0 20 C0 13.4 0 6.8 0 0 Z " fill="#121212" transform="translate(350,284)"/>
<path d="M0 0 C3.13051597 2.72916777 3.90170097 4.32419415 4.5 8.4375 C3.92103132 12.56265185 2.53936964 14.74643266 0 18 C-0.66 17.67 -1.32 17.34 -2 17 C-1.34 16.34 -0.68 15.68 0 15 C0.39501229 12.66761933 0.39501229 12.66761933 0.375 10.0625 C0.40335938 9.18722656 0.43171875 8.31195313 0.4609375 7.41015625 C0.21255931 4.85989807 0.21255931 4.85989807 -1.86328125 3.1953125 C-4.46074464 1.74225254 -6.06260583 1.7740466 -9 2 C-9.99 2 -10.98 2 -12 2 C-7.75834686 -1.21337359 -5.10471173 -1.48500705 0 0 Z " fill="#232323" transform="translate(155,284)"/>
<path d="M0 0 C2.0625 0.4375 2.0625 0.4375 4 1 C3.91275184 3.89724063 3.80584073 6.79150135 3.6875 9.6875 C3.66494141 10.50412109 3.64238281 11.32074219 3.61914062 12.16210938 C3.4078204 16.90720907 2.97250382 20.08713305 0 24 C-1.21858107 21.56283785 -1.12925575 19.96725943 -1.1328125 17.24609375 C-1.13410156 16.30958984 -1.13539063 15.37308594 -1.13671875 14.40820312 C-1.13285156 13.42787109 -1.12898438 12.44753906 -1.125 11.4375 C-1.12886719 10.45330078 -1.13273437 9.46910156 -1.13671875 8.45507812 C-1.13542969 7.51986328 -1.13414062 6.58464844 -1.1328125 5.62109375 C-1.13168457 4.7592749 -1.13055664 3.89745605 -1.12939453 3.00952148 C-1 1 -1 1 0 0 Z " fill="#333333" transform="translate(267,283)"/>
<path d="M0 0 C1.32 0 2.64 0 4 0 C4 5.94 4 11.88 4 18 C4.99 18.33 5.98 18.66 7 19 C6.67 19.33 6.34 19.66 6 20 C4.35 20 2.7 20 1 20 C0.67 13.4 0.34 6.8 0 0 Z " fill="#2A2A2A" transform="translate(291,284)"/>
<path d="M0 0 C1.32 0 2.64 0 4 0 C4.02690104 2.79173055 4.04679053 5.58320348 4.0625 8.375 C4.07087891 9.1690625 4.07925781 9.963125 4.08789062 10.78125 C4.11328125 16.7734375 4.11328125 16.7734375 3 19 C4.32 19.33 5.64 19.66 7 20 C5.02 20 3.04 20 1 20 C0.67 13.4 0.34 6.8 0 0 Z " fill="#292929" transform="translate(302,284)"/>
<path d="M0 0 C1 2 1 2 0.5 5.375 C-0.24181433 9.08906224 -0.24181433 9.08906224 1 13 C4.3 13.66 7.6 14.32 11 15 C9 17 9 17 5.625 17.375 C2 17 2 17 -0.375 15.125 C-3.27618865 11.33113792 -3.32903237 8.77096942 -3 4 C-1.5 1.5625 -1.5 1.5625 0 0 Z " fill="#1F1F1F" transform="translate(142,287)"/>
<path d="M0 0 C0.99 0.33 1.98 0.66 3 1 C2.67 6.61 2.34 12.22 2 18 C-0.83293634 15.16706366 -0.49317603 12.2427167 -0.6875 8.4375 C-0.73455078 7.73947266 -0.78160156 7.04144531 -0.83007812 6.32226562 C-0.93491375 4.55037178 -0.97276011 2.77478345 -1 1 C-0.67 0.67 -0.34 0.34 0 0 Z " fill="#4B4B4B" transform="translate(231,283)"/>
<path d="M0 0 C1.98 0.495 1.98 0.495 4 1 C3.34 5.95 2.68 10.9 2 16 C1.67 16 1.34 16 1 16 C1 11.38 1 6.76 1 2 C0.34 1.67 -0.32 1.34 -1 1 C-0.67 0.67 -0.34 0.34 0 0 Z " fill="#3A3A3A" transform="translate(179,283)"/>
<path d="M0 0 C0 0.99 0 1.98 0 3 C-0.92232422 2.98259766 -0.92232422 2.98259766 -1.86328125 2.96484375 C-3.07564453 2.95130859 -3.07564453 2.95130859 -4.3125 2.9375 C-5.11300781 2.92589844 -5.91351563 2.91429687 -6.73828125 2.90234375 C-9.16861334 2.90342145 -9.16861334 2.90342145 -12 4 C-12 3.34 -12 2.68 -12 2 C-7.8794254 0.00214565 -4.54805635 -0.17835515 0 0 Z " fill="#5C5C5C" transform="translate(342,283)"/>
<path d="M0 0 C-0.99 1.485 -0.99 1.485 -2 3 C-3.093125 2.835 -4.18625 2.67 -5.3125 2.5 C-8.87525873 1.93281816 -8.87525873 1.93281816 -12 2 C-7.72424275 -1.23921004 -5.16347713 -1.11369115 0 0 Z " fill="#444444" transform="translate(155,284)"/>
</svg>
